<svg xmlns="http://www.w3.org/2000/svg" version="1.1" xmlns:xlink="http://www.w3.org/1999/xlink" xmlns:svgjs="http://svgjs.com/svgjs" width="1980" height="1080" preserveAspectRatio="none" viewBox="0 0 1980 1080"><g mask="url(&quot;#SvgjsMask1030&quot;)" fill="none"><rect width="1980" height="1080" x="0" y="0" fill="#0e2a47"></rect><path d="M0 1078.1L10 982.55L20 940.87L30 966.39L40 954.75L50 1014.58L60 1027.13L70 1050.76L80 946.78L90 907.24L100 898.68L110 920.19L120 818.4L130 690.52L140 603.9L150 724.7L160 702.12L170 713.24L180 826.44L190 839.73L200 950.43L210 824.57L220 735.76L230 811.88L240 898.36L250 839.55L260 899.45L270 945.86L280 958.55L290 831.57L300 800.54L310 735.53L320 682.58L330 549.18L340 490.66L350 572.31L360 497.17L370 442.53L380 315.94L390 238.8L400 178.23L410 52.48L420 125.59L430 10.62L440 15.79L450 36.46L460 166.9L470 45.76L480 106.59L490 208.58L500 92.64L510 132.28L520 180.99L530 46.86L540 48.12L550 180.38L560 145.03L570 42.28L580 25.22L590 72.23L600 139L610 90.48L620 169.23L630 80.58L640 178.35L650 155.75L660 196.02L670 90.54L680 4.37L690 104.39L700 62.71L710 108.01L720 103.21L730 26.3L740 156.95L750 166.4L760 256.68L770 333.32L780 293.76L790 407.46L800 312.85L810 390.57L820 304.97L830 336.89L840 306.3L850 232.44L860 228.98L870 270.56L880 340.8L890 238.76L900 320.99L910 429.47L920 496.55L930 556.38L940 466.74L950 411.16L960 323.77L970 302.45L980 228.18L990 185.09L1000 65.76L1010 13.48L1020 29.73L1030 163.14L1040 235.33L1050 195.17L1060 307.9L1070 431.62L1080 426.12L1090 327.76L1100 241.73L1110 160.55L1120 57.6L1130 112.45L1140 186.76L1150 138.01L1160 248.42L1170 341.17L1180 474.01L1190 385.86L1200 496.76L1210 595.35L1220 675.21L1230 745.18L1240 685.75L1250 632.01L1260 556.34L1270 448.46L1280 449.41L1290 400.5L1300 412.52L1310 502.95L1320 482.6L1330 402.33L1340 315.41L1350 416.62L1360 465.79L1370 477.51L1380 602.2L1390 566.28L1400 680.67L1410 682.23L1420 676.09L1430 613.39L1440 661.36L1450 678.73L1460 733.05L1470 841.74L1480 719.1L1490 815.37L1500 911.92L1510 802.84L1520 783.38L1530 692.86L1540 714.58L1550 610.56L1560 695.99L1570 708.03L1580 833.67L1590 928.51L1600 906.1L1610 972.45L1620 868.69L1630 802.53L1640 901.57L1650 1026.82L1660 1043.18L1670 958.96L1680 892.28L1690 771.5L1700 902.91L1710 809.56L1720 684.86L1730 709.7L1740 789.69L1750 838.5L1760 793.38L1770 901.96L1780 794.49L1790 823.07L1800 879.34L1810 847.08L1820 849.25L1830 732.79L1840 696.66L1850 650.41L1860 596.12L1870 618.56L1880 728.5L1890 715.74L1900 792.47L1910 717.44L1920 612.24L1930 540.96L1940 559.57L1950 648.36L1960 571.12L1970 705.67L1980 703.25" stroke="#224b75" stroke-width="2"></path><path d="M0 1078.1L10 982.55L20 940.87L30 966.39L40 954.75L50 1014.58L60 1027.13L70 1050.76L80 946.78L90 907.24L100 898.68L110 920.19L120 818.4L130 690.52L140 603.9L150 724.7L160 702.12L170 713.24L180 826.44L190 839.73L200 950.43L210 824.57L220 735.76L230 811.88L240 898.36L250 839.55L260 899.45L270 945.86L280 958.55L290 831.57L300 800.54L310 735.53L320 682.58L330 549.18L340 490.66L350 572.31L360 497.17L370 442.53L380 315.94L390 238.8L400 178.23L410 52.48L420 125.59L430 10.62L440 15.79L450 36.46L460 166.9L470 45.76L480 106.59L490 208.58L500 92.64L510 132.28L520 180.99L530 46.86L540 48.12L550 180.38L560 145.03L570 42.28L580 25.22L590 72.23L600 139L610 90.48L620 169.23L630 80.58L640 178.35L650 155.75L660 196.02L670 90.54L680 4.37L690 104.39L700 62.71L710 108.01L720 103.21L730 26.3L740 156.95L750 166.4L760 256.68L770 333.32L780 293.76L790 407.46L800 312.85L810 390.57L820 304.97L830 336.89L840 306.3L850 232.44L860 228.98L870 270.56L880 340.8L890 238.76L900 320.99L910 429.47L920 496.55L930 556.38L940 466.74L950 411.16L960 323.77L970 302.45L980 228.18L990 185.09L1000 65.76L1010 13.48L1020 29.73L1030 163.14L1040 235.33L1050 195.17L1060 307.9L1070 431.62L1080 426.12L1090 327.76L1100 241.73L1110 160.55L1120 57.6L1130 112.45L1140 186.76L1150 138.01L1160 248.42L1170 341.17L1180 474.01L1190 385.86L1200 496.76L1210 595.35L1220 675.21L1230 745.18L1240 685.75L1250 632.01L1260 556.34L1270 448.46L1280 449.41L1290 400.5L1300 412.52L1310 502.95L1320 482.6L1330 402.33L1340 315.41L1350 416.62L1360 465.79L1370 477.51L1380 602.2L1390 566.28L1400 680.67L1410 682.23L1420 676.09L1430 613.39L1440 661.36L1450 678.73L1460 733.05L1470 841.74L1480 719.1L1490 815.37L1500 911.92L1510 802.84L1520 783.38L1530 692.86L1540 714.58L1550 610.56L1560 695.99L1570 708.03L1580 833.67L1590 928.51L1600 906.1L1610 972.45L1620 868.69L1630 802.53L1640 901.57L1650 1026.82L1660 1043.18L1670 958.96L1680 892.28L1690 771.5L1700 902.91L1710 809.56L1720 684.86L1730 709.7L1740 789.69L1750 838.5L1760 793.38L1770 901.96L1780 794.49L1790 823.07L1800 879.34L1810 847.08L1820 849.25L1830 732.79L1840 696.66L1850 650.41L1860 596.12L1870 618.56L1880 728.5L1890 715.74L1900 792.47L1910 717.44L1920 612.24L1930 540.96L1940 559.57L1950 648.36L1960 571.12L1970 705.67L1980 703.25L1980 1080L0 1080z" fill="url(#SvgjsLinearGradient1031)"></path></g><defs><mask id="SvgjsMask1030"><rect width="1980" height="1080" fill="#ffffff"></rect></mask><linearGradient x1="50%" y1="0%" x2="50%" y2="100%" id="SvgjsLinearGradient1031"><stop stop-opacity="0.65" stop-color="#224b75" offset="0"></stop><stop stop-opacity="0" stop-color="#508dcc" offset="0.8"></stop></linearGradient></defs></svg>